<svg width="40" height="53" viewBox="0 0 40 53" fill="none" xmlns="http://www.w3.org/2000/svg">
<path fill-rule="evenodd" clip-rule="evenodd" d="M17.1136 3.64766H16.977C16.7671 3.63494 16.5571 3.62985 16.3471 3.62477H16.3471H16.3269H15.8918C15.4946 3.62477 15.0898 3.63494 14.6876 3.65528C14.6573 3.65308 14.6269 3.65308 14.5966 3.65528C10.9522 3.86177 7.38171 4.77265 4.08049 6.33806L3.6479 6.54658V28.6877L4.65979 28.3444C5.54773 28.0393 6.49384 27.7646 7.47285 27.5103C10.1193 26.8309 12.8367 26.4699 15.568 26.4347V29.3438C15.2062 29.3463 14.8546 29.3565 14.503 29.3743H14.4195C12.3175 29.4896 10.2317 29.8098 8.19129 30.3304C5.60716 30.9774 3.11433 31.9488 0.771606 33.2217V4.82502C3.20469 3.40588 5.82533 2.34001 8.55557 1.6591C10.9527 1.04019 13.4169 0.722442 15.8918 0.713135H16.3193C16.8303 0.725849 17.3287 0.748736 17.7967 0.784336C19.0297 0.870911 20.2528 1.06576 21.4521 1.36666V4.22998C20.2874 3.95864 19.1032 3.78009 17.9105 3.69597C17.8863 3.69392 17.8621 3.69186 17.8379 3.68979C17.5911 3.66874 17.344 3.64766 17.1136 3.64766ZM22.1528 6.57452C22.7877 6.62283 23.4455 6.64572 24.1108 6.64572C26.7125 6.63621 29.3031 6.30397 31.8239 5.65653C34.4068 5.0071 36.8986 4.03491 39.2411 2.7627V30.6533C36.8067 32.0716 34.1853 33.1375 31.4546 33.8193C29.0571 34.4358 26.5931 34.7527 24.1184 34.7627C22.2433 34.7778 20.3737 34.5574 18.553 34.1066V6.03542C18.983 6.1346 19.4257 6.22614 19.876 6.30243C20.6147 6.42703 21.3939 6.51857 22.1528 6.57452ZM36.3471 6.79067L35.3352 7.13142C34.4042 7.44419 33.4657 7.72391 32.5221 7.97312C29.7749 8.67909 26.9514 9.04123 24.1158 9.05131C23.4556 9.05131 22.8485 9.03351 22.2616 8.99537L21.4546 8.94197V29.031V31.7188L22.1477 31.7799C22.7903 31.8358 23.4531 31.8638 24.1209 31.8638C26.3544 31.8543 28.5781 31.5664 30.7412 31.0068C32.5223 30.56 34.2552 29.9374 35.9145 29.1479L36.3471 28.9394V6.79067Z" fill="#AFB1B8"/>
<path d="M2.73713 42.9255C2.59166 42.7746 2.41629 42.6562 2.22236 42.5777C2.02844 42.4993 1.82029 42.4627 1.61141 42.4703C1.38879 42.4674 1.16781 42.5089 0.961267 42.5924C0.771901 42.6678 0.599767 42.7812 0.455322 42.9255C0.312451 43.0703 0.201292 43.2436 0.128988 43.4341C0.0496792 43.6338 0.0101425 43.8472 0.0126205 44.0622V47.8562C0.00357283 48.1236 0.0545882 48.3895 0.161874 48.6344C0.251433 48.8288 0.380725 49.0021 0.541333 49.1429C0.692953 49.2706 0.870978 49.3627 1.06246 49.4125C1.24694 49.4643 1.43755 49.4909 1.62911 49.4913C1.84041 49.4934 2.04953 49.4483 2.24131 49.3591C2.43095 49.2761 2.60277 49.1569 2.74725 49.0082C2.88814 48.8608 3.00052 48.6883 3.07865 48.4996C3.15973 48.3083 3.20105 48.1023 3.20007 47.8944V47.4697H2.20842V47.8079C2.21137 47.9234 2.1916 48.0383 2.15024 48.1461C2.11794 48.2269 2.06877 48.2997 2.00604 48.3597C1.94461 48.4094 1.87416 48.4465 1.79861 48.4691C1.73164 48.4914 1.6617 48.5034 1.59117 48.5047C1.50263 48.515 1.41296 48.5016 1.33122 48.4659C1.24948 48.4301 1.17858 48.3734 1.1257 48.3012C1.03222 48.1488 0.986395 47.9716 0.994154 47.7927V44.2555C0.988002 44.0593 1.02969 43.8646 1.11558 43.6884C1.16706 43.6083 1.2399 43.5444 1.32578 43.5039C1.41166 43.4635 1.50713 43.4481 1.60129 43.4595C1.68676 43.4565 1.7717 43.4743 1.8488 43.5115C1.92591 43.5487 1.99289 43.6042 2.04399 43.6731C2.15496 43.8188 2.21298 43.9983 2.20842 44.1817V44.5098H3.18995V44.1232C3.19195 43.8962 3.15073 43.671 3.06853 43.4595C2.99527 43.2608 2.88251 43.0791 2.73713 42.9255Z" fill="#AFB1B8"/>
<path d="M8.62892 42.8822C8.31271 42.6152 7.91362 42.4677 7.50066 42.4652C7.29868 42.4661 7.09838 42.5022 6.9087 42.572C6.71613 42.641 6.53841 42.7463 6.38505 42.8822C6.22076 43.0299 6.08968 43.2111 6.00053 43.4137C5.90063 43.6455 5.85146 43.8961 5.85634 44.1486V47.7875C5.8495 48.0435 5.89873 48.2979 6.00053 48.5326C6.09028 48.7283 6.22152 48.9019 6.38505 49.0412C6.53665 49.1819 6.71468 49.2909 6.9087 49.3616C7.09838 49.4314 7.29868 49.4675 7.50066 49.4684C7.70269 49.468 7.90307 49.4319 8.09262 49.3616C8.28995 49.2899 8.47195 49.1812 8.62892 49.0412C8.7871 48.8993 8.91454 48.7261 9.00332 48.5326C9.10512 48.2979 9.15435 48.0435 9.14751 47.7875V44.1486C9.15239 43.8961 9.10322 43.6455 9.00332 43.4137C8.91505 43.2132 8.78775 43.0325 8.62892 42.8822ZM8.16598 47.7875C8.17434 47.8845 8.16095 47.9821 8.1268 48.0732C8.09265 48.1643 8.03861 48.2466 7.96866 48.3139C7.83768 48.4238 7.67251 48.4839 7.50193 48.4839C7.33135 48.4839 7.16617 48.4238 7.03519 48.3139C6.96524 48.2466 6.9112 48.1643 6.87705 48.0732C6.8429 47.9821 6.82952 47.8845 6.83787 47.7875V44.1486C6.82952 44.0516 6.8429 43.954 6.87705 43.8629C6.9112 43.7718 6.96524 43.6896 7.03519 43.6222C7.16617 43.5124 7.33135 43.4522 7.50193 43.4522C7.67251 43.4522 7.83768 43.5124 7.96866 43.6222C8.03861 43.6896 8.09265 43.7718 8.1268 43.8629C8.16095 43.954 8.17434 44.0516 8.16598 44.1486V47.7875Z" fill="#AFB1B8"/>
<path d="M16.3673 49.4125V42.5238H15.4136L14.1614 46.1703H14.1437L12.8813 42.5238H11.9377V49.4125H12.9218V45.2218H12.9395L13.9033 48.1843H14.3941L15.3655 45.2218H15.3832V49.4125H16.3673Z" fill="#AFB1B8"/>
<path d="M21.9581 43.0068C21.8065 42.8368 21.6153 42.7075 21.4015 42.6304C21.1712 42.5555 20.9302 42.5194 20.6881 42.5236H19.226V49.4124H20.2075V46.722H20.7134C21.0197 46.7359 21.3244 46.6712 21.5988 46.5338C21.822 46.4099 22.0081 46.2281 22.1377 46.0074C22.2512 45.8242 22.3277 45.6203 22.3628 45.4073C22.4014 45.1481 22.4192 44.8862 22.4159 44.6241C22.4255 44.2933 22.3932 43.9626 22.3198 43.64C22.2543 43.4016 22.1299 43.1838 21.9581 43.0068ZM21.4521 45.1072C21.4479 45.232 21.4168 45.3543 21.361 45.4658C21.3049 45.5717 21.2162 45.6565 21.1081 45.7074C20.9627 45.7724 20.8041 45.802 20.6451 45.7938H20.1974V43.4518H20.7033C20.8557 43.4443 21.0075 43.474 21.146 43.5383C21.2475 43.5965 21.3281 43.6855 21.3762 43.7926C21.4299 43.9136 21.4591 44.0441 21.4622 44.1765C21.4622 44.3215 21.4622 44.4741 21.4622 44.6343C21.4622 44.7945 21.4723 44.9598 21.4622 45.1072H21.4521Z" fill="#AFB1B8"/>
<path d="M26.6077 42.5238H25.8032L24.2854 49.4125H25.2669L25.5553 47.9326H26.8935L27.1819 49.4125H28.1635L26.6077 42.5238ZM25.702 46.9942L26.1852 44.4971H26.2029L26.6836 46.9942H25.702Z" fill="#AFB1B8"/>
<path d="M32.9497 46.6738H32.932L31.4496 42.5238H30.506V49.4125H31.4875V45.2701H31.5078L33.0079 49.4125H33.9312V42.5238H32.9497V46.6738Z" fill="#AFB1B8"/>
<path d="M38.9476 42.5238L38.1583 45.2625H38.1381L37.3488 42.5238H36.3091L37.6574 46.5009V49.4125H38.639V46.5009L39.9873 42.5238H38.9476Z" fill="#AFB1B8"/>
<path d="M0 51.3577H0.473058V52.6851H0.794333V51.3577H1.26486V51.0856H0V51.3577Z" fill="#AFB1B8"/>
<path d="M3.97672 51.0856L3.35693 52.6851H3.69845L3.82999 52.3214H4.46748L4.60409 52.6851H4.95319L4.31823 51.0856H3.97672ZM3.92612 52.0519L4.14368 51.4594L4.36123 52.0519H3.92612Z" fill="#AFB1B8"/>
<path d="M7.90793 52.0953H8.27727V52.3012C8.16941 52.3877 8.03576 52.4352 7.89781 52.436C7.8333 52.4396 7.76886 52.4277 7.70988 52.4011C7.65091 52.3746 7.59911 52.3342 7.55883 52.2834C7.47402 52.1617 7.43217 52.0149 7.43993 51.8664C7.43993 51.5104 7.59424 51.3324 7.90034 51.3324C7.98091 51.3244 8.06168 51.3456 8.12804 51.3922C8.19439 51.4389 8.24194 51.5079 8.26209 51.5867L8.57831 51.5257C8.51001 51.2129 8.28486 51.0552 7.90034 51.0552C7.69468 51.0497 7.4947 51.1234 7.34127 51.2612C7.26069 51.3408 7.19834 51.4371 7.15858 51.5433C7.11882 51.6496 7.10261 51.7633 7.11107 51.8766C7.10175 52.0954 7.17493 52.3097 7.31598 52.4767C7.39434 52.5575 7.4892 52.6202 7.59401 52.6606C7.69883 52.701 7.8111 52.7181 7.92311 52.7106C8.17338 52.7176 8.41652 52.6264 8.60108 52.4564V51.8257H7.90793V52.0953Z" fill="#AFB1B8"/>
<path d="M11.9226 51.0856H11.5988V52.6851H12.7194V52.413H11.9226V51.0856Z" fill="#AFB1B8"/>
<path d="M15.3175 51.0856H14.9937V52.6851H15.3175V51.0856Z" fill="#AFB1B8"/>
<path d="M18.6365 52.1536L17.9813 51.0856H17.6676V52.6851H17.9686V51.6399L18.6112 52.6851H18.9325V51.0856H18.6365V52.1536Z" fill="#AFB1B8"/>
<path d="M21.6368 51.9807H22.4337V51.7086H21.6368V51.3577H22.4944V51.0856H21.313V52.6851H22.5273V52.413H21.6368V51.9807Z" fill="#AFB1B8"/>
<path d="M28.9122 51.7162H28.2823V51.0856H27.9611V52.6851H28.2823V51.9858H28.9122V52.6851H29.2335V51.0856H28.9122V51.7162Z" fill="#AFB1B8"/>
<path d="M31.9302 51.9807H32.7296V51.7086H31.9302V51.3577H32.7903V51.0856H31.6089V52.6851H32.8206V52.413H31.9302V51.9807Z" fill="#AFB1B8"/>
<path d="M36.0233 51.9807C36.3015 51.9375 36.4432 51.79 36.4432 51.5357C36.4513 51.4677 36.441 51.3987 36.4134 51.3361C36.3858 51.2735 36.3419 51.2194 36.2863 51.1797C36.1415 51.107 35.9799 51.0745 35.8183 51.0856H35.1404V52.6851H35.4617V52.0163H35.5249C35.5934 52.0121 35.6619 52.0243 35.7247 52.0519C35.7717 52.0809 35.8108 52.1211 35.8386 52.1689L36.1877 52.6775H36.5722L36.3774 52.3647C36.2913 52.2103 36.1699 52.0787 36.0233 51.9807ZM35.6994 51.7595H35.4617V51.3577H35.7146C35.8248 51.3488 35.9357 51.3618 36.041 51.3959C36.0644 51.4165 36.0828 51.4422 36.095 51.471C36.1072 51.4998 36.1127 51.531 36.1113 51.5623C36.1098 51.5936 36.1014 51.6241 36.0866 51.6516C36.0718 51.6792 36.051 51.703 36.0258 51.7214C35.9202 51.7537 35.8096 51.7667 35.6994 51.7595Z" fill="#AFB1B8"/>
<path d="M39.1096 51.9807H39.9064V51.7086H39.1096V51.3577H39.9697V51.0856H38.7858V52.6851H40V52.413H39.1096V51.9807Z" fill="#AFB1B8"/>
</svg>
